<svg xmlns="http://www.w3.org/2000/svg" viewBox="0 0 760 420">
<defs>
<linearGradient id="sky" x1="0" y1="0" x2="1" y2="1"><stop stop-color="#dbeafe"/><stop offset=".55" stop-color="#e0f2fe"/><stop offset="1" stop-color="#ccfbf1"/></linearGradient>
<linearGradient id="b" x1="0" x2="1"><stop stop-color="#0ea5e9"/><stop offset="1" stop-color="#14b8a6"/></linearGradient>
</defs>
<rect width="760" height="420" rx="36" fill="url(#sky)"/>
<circle cx="640" cy="86" r="54" fill="#fde68a" opacity=".7"/>
<path d="M0 342 C120 290 190 330 300 286 C410 240 515 300 760 220 V420 H0Z" fill="#bae6fd"/>
<rect x="400" y="120" width="250" height="205" rx="18" fill="#fff" stroke="#93c5fd" stroke-width="4"/>
<rect x="430" y="145" width="80" height="150" rx="10" fill="#e0f2fe"/>
<rect x="535" y="145" width="84" height="150" rx="10" fill="#ecfeff"/>
<rect x="485" y="92" width="80" height="58" rx="12" fill="url(#b)"/>
<path d="M522 104h16v12h12v16h-12v12h-16v-12h-12v-16h12z" fill="#fff"/>
<g fill="#60a5fa"><rect x="446" y="165" width="24" height="24" rx="5"/><rect x="480" y="165" width="24" height="24" rx="5"/><rect x="446" y="204" width="24" height="24" rx="5"/><rect x="480" y="204" width="24" height="24" rx="5"/></g>
<g fill="#2dd4bf"><rect x="551" y="165" width="24" height="24" rx="5"/><rect x="585" y="165" width="24" height="24" rx="5"/><rect x="551" y="204" width="24" height="24" rx="5"/><rect x="585" y="204" width="24" height="24" rx="5"/></g>
<path d="M138 245h160v70H138z" fill="#fff" opacity=".95"/><path d="M160 210h116l58 35H102z" fill="#f8fafc"/>
<rect x="184" y="248" width="30" height="67" fill="#bfdbfe"/><rect x="230" y="248" width="30" height="67" fill="#bfdbfe"/>
<path d="M170 205c18-70 78-70 96 0z" fill="#fff"/><circle cx="218" cy="170" r="12" fill="#0ea5e9"/>
<path d="M95 120c62-18 105-18 168 0" stroke="#93c5fd" stroke-width="8" stroke-linecap="round"/><path d="M145 95l32 12 36-35" stroke="#0ea5e9" stroke-width="10" fill="none" stroke-linecap="round"/>
<path d="M120 352c120-52 250-40 366 6" stroke="#14b8a6" stroke-width="6" fill="none" opacity=".4"/>
</svg>